PathFileType	4	(X/Y/Z)	C:\Users\WrightLab\Desktop\Jo\P5V26.trc
DataRate	CameraRate	NumFrames	NumMarkers	Units	OrigDataRate	OrigDataStartFrame	OrigNumFrames
100.00	100.00	       6	19	mm	100.00	462	       739
Frame#	Time	Headset_Front			Headset_Back			Headset_Left			Headset_Right			Left_Shoulder			Right_Shoulder			Sternum			C7			Left Elbow			Right Elbow			Left Wrist			Right Wrist			Left ASIS			Right ASIS			S2			Left Knee			Right Knee			Left Ankle			Right Ankle			
		X1	Y1	Z1	X2	Y2	Z2	X3	Y3	Z3	X4	Y4	Z4	X5	Y5	Z5	X6	Y6	Z6	X7	Y7	Z7	X8	Y8	Z8	X9	Y9	Z9	X10	Y10	Z10	X11	Y11	Z11	X12	Y12	Z12	X13	Y13	Z13	X14	Y14	Z14	X15	Y15	Z15	X16	Y16	Z16	X17	Y17	Z17	X18	Y18	Z18	X19	Y19	Z19	

462	4.610	28.59539	1416.37720	-197.78838				58.60561	1568.37354	-342.03680	-75.42663	1518.85400	-157.79518	-44.08223	1499.36938	-553.38153	-185.44324	1440.43018	-197.91261	-89.92867	1290.15833	-358.27289	-245.33138	1533.63403	-404.98642	-26.24051	1220.77246	-664.30511	-128.76115	1212.40320	-51.76740	30.17663	987.80731	-594.86700	-328.73700	1000.78656	-536.68896	-54.79643	918.89783	-473.02792	-215.83148	930.89771	-248.74078	77.56024	1103.58557	52.39826	-48.06285	492.74466	-501.53467	-350.99924	497.08752	-227.88072	-115.10751	79.74744	-462.04630	-432.37833	100.56694	-288.71997	
463	4.620	31.13928	1415.52332	-199.20955				60.58490	1567.89709	-341.90271	-73.86176	1518.09912	-158.92679	-42.67467	1499.28821	-553.48486	-182.17697	1440.50842	-197.19016	-87.66839	1290.30481	-358.23358	-243.28596	1533.48816	-404.15775	-25.10582	1220.95984	-664.88843	-125.81175	1212.26624	-51.14376	32.04939	987.74182	-596.15851	-327.15695	1001.63556	-536.97418	-53.57170	918.97223	-474.07205	-214.92979	930.83069	-248.51529	80.63086	1103.22522	52.76582	-46.64856	492.68988	-502.69986	-350.45895	496.77875	-228.17343	-115.13226	79.74938	-462.04373	-432.31555	100.59950	-288.68384	
464	4.630	33.76411	1414.97583	-198.78314				62.31047	1567.49097	-341.96368	-69.70125	1516.92932	-157.61469	-41.12084	1499.47766	-553.12085	-182.20308	1439.90430	-197.77858	-85.97223	1290.36047	-358.88321	-241.90701	1533.91016	-404.39963	-23.84605	1220.54553	-663.86310	-122.58298	1212.50061	-51.25138	31.99582	987.49030	-596.85052	-325.97037	1001.28296	-536.56635	-52.59917	918.78693	-474.52347	-213.36475	930.74896	-248.70575	83.13593	1102.85010	53.60861	-45.72029	493.05948	-503.68747	-350.46722	497.01532	-228.56357	-115.37134	79.72424	-461.86185	-432.22202	100.61091	-288.64087	
465	4.640	35.61500	1413.45251	-199.25034				64.66122	1567.30933	-342.35233	-67.99068	1516.17627	-157.79176	-39.55865	1499.36707	-552.64111	-177.89999	1439.36365	-196.51604	-84.59947	1290.01184	-359.42422	-239.68466	1533.22168	-403.05743	-22.72239	1220.64490	-664.31506	-119.66889	1213.10913	-50.66445	33.30756	987.94934	-597.23059	-324.79739	1001.31836	-536.79993	-51.95776	918.69452	-474.45569	-212.17229	930.53687	-248.90808	85.96576	1102.53296	53.93031	-44.74652	493.03394	-504.37659	-350.60086	497.18460	-229.19664	-115.64429	79.86564	-461.72256	-432.14542	100.60539	-288.61255	
466	4.650	37.59824	1412.49280	-199.94542				65.89618	1566.96631	-342.30396	-66.54028	1514.87537	-157.96516	-37.78613	1499.25549	-552.94525	-176.86418	1439.61572	-196.90549	-82.80771	1289.66431	-358.92606	-238.34067	1533.33545	-403.03653	-21.51612	1220.69324	-664.75623	-116.98483	1213.20459	-50.69902	34.23521	987.92535	-596.31012	-323.50598	1001.38916	-537.16089	-50.23465	918.38300	-474.69931	-210.58693	930.45953	-248.41302	88.15428	1102.45874	54.61348	-43.91293	492.54483	-504.53287	-350.24036	497.21008	-229.63329	-116.02287	79.92750	-461.81549	-431.78140	100.42680	-288.61078	
467	4.660	38.70910	1412.33850	-200.34990				67.71067	1566.40259	-342.24335	-64.24992	1514.32947	-157.85880	-36.37198	1499.26733	-552.20782	-176.12950	1438.65430	-197.49597	-80.89408	1289.04553	-359.31522	-236.44820	1533.02271	-402.59277	-19.89592	1220.65247	-664.94354	-114.60580	1213.30188	-50.41894	35.55720	987.96228	-597.07831	-322.22324	1001.93646	-537.70605	-49.66724	918.35034	-474.81549	-210.27412	929.77356	-248.71428	90.48866	1102.05676	55.59074	-43.03457	492.24890	-504.56653	-349.96860	497.23798	-229.97168	-115.93747	79.68688	-461.76215	-431.70059	100.37448	-288.62097	
